<svg viewBox="0 0 256 256" xmlns="http://www.w3.org/2000/svg"><path d="m112.002 233.05664a16.01181 16.01181 0 0 1 -16.002-16.00488v-77.959l-65.75439-72.32909a16.00043 16.00043 0 0 1 11.83886-26.76367h171.83106a16.00019 16.00019 0 0 1 11.83935 26.7627l-65.75488 72.33105v56.625a15.96822 15.96822 0 0 1 -7.12549 13.31348l-31.99951 21.332a15.97927 15.97927 0 0 1 -8.873 2.69241zm-69.91216-177.05664 65.749 72.33008a15.96379 15.96379 0 0 1 4.16116 10.76269v77.959l32-21.333v-56.626a15.96476 15.96476 0 0 1 4.16309-10.76465l65.74853-72.32421z"/></svg>